<svg xmlns="http://www.w3.org/2000/svg" width="166.514" height="50" viewBox="0 0 166.514 50"><defs><style>.a{fill:#fff;}</style></defs><g transform="translate(-230.213 -183.955)"><g transform="translate(361.042 183.955)"><path class="a" d="M548.064,233.583a71.807,71.807,0,0,1,1.788-10.87,103.88,103.88,0,0,1,3.326-11.084,93.477,93.477,0,0,1,4.4-10.262,59.431,59.431,0,0,1,4.933-8.081H543.4l1.47-9.332,34.216.13s-6.629,11.574-8.464,14.53a80.355,80.355,0,0,0-5.22,10.047,92.851,92.851,0,0,0-4.29,12.049,62.337,62.337,0,0,0-2.252,12.872Z" transform="translate(-543.404 -183.955)"/></g><g transform="translate(230.213 184.283)"><path class="a" d="M335.306,236.49a21.9,21.9,0,0,1-1.15,7.258,15.772,15.772,0,0,1-3.321,5.627,14.944,14.944,0,0,1-5.206,3.613,17.359,17.359,0,0,1-6.8,1.28,17.176,17.176,0,0,1-6.738-1.28,14.906,14.906,0,0,1-5.206-3.613,16.517,16.517,0,0,1-3.385-5.627,20.84,20.84,0,0,1-1.214-7.258,20.125,20.125,0,0,1,1.246-7.226,16.4,16.4,0,0,1,3.449-5.563,15.5,15.5,0,0,1,5.237-3.581,17.887,17.887,0,0,1,13.285,0,15.161,15.161,0,0,1,5.206,3.581,16.285,16.285,0,0,1,3.385,5.563A20.6,20.6,0,0,1,335.306,236.49Zm-9.708,0a11.989,11.989,0,0,0-1.757-6.938,5.741,5.741,0,0,0-5.013-2.526,5.822,5.822,0,0,0-5.046,2.526,11.826,11.826,0,0,0-1.789,6.938,12.135,12.135,0,0,0,1.789,7,5.777,5.777,0,0,0,5.046,2.589,5.7,5.7,0,0,0,5.013-2.589A12.3,12.3,0,0,0,325.6,236.49Z" transform="translate(-272.178 -204.596)"/><path class="a" d="M416.665,232.333q-1.281.384-2.942.736t-3.485.608q-1.823.254-3.709.415t-3.613.16a21.171,21.171,0,0,1-7.418-1.215,14.894,14.894,0,0,1-5.5-3.485,15.1,15.1,0,0,1-3.421-5.5,20.956,20.956,0,0,1-1.184-7.258,24.85,24.85,0,0,1,1.024-7.386,16.066,16.066,0,0,1,2.941-5.6,12.6,12.6,0,0,1,4.7-3.517,15.763,15.763,0,0,1,6.363-1.215,15,15,0,0,1,3.549.383,19.287,19.287,0,0,1,3.166,1.087V186.276l9.528-1.535Zm-21.551-15.986a11.667,11.667,0,0,0,1.983,7.1,6.843,6.843,0,0,0,5.882,2.686q1.279,0,2.367-.1t1.79-.223V208.48a8.3,8.3,0,0,0-2.334-.959,11.236,11.236,0,0,0-2.91-.383Q395.115,207.138,395.114,216.346Z" transform="translate(-320.571 -184.741)"/><path class="a" d="M463.9,236.647a20.493,20.493,0,0,1,1.371-7.806,16.723,16.723,0,0,1,3.6-5.575A14.974,14.974,0,0,1,474,219.89a16.063,16.063,0,0,1,5.958-1.147q7.134,0,11.277,4.364t4.143,12.838q0,.829-.064,1.816t-.127,1.752H473.654a6.307,6.307,0,0,0,2.74,4.651,11.015,11.015,0,0,0,6.5,1.72,27.387,27.387,0,0,0,5.129-.478,19.3,19.3,0,0,0,4.11-1.178l1.274,7.71a13.1,13.1,0,0,1-2.039.764,26.68,26.68,0,0,1-2.835.669q-1.562.287-3.345.478a33.383,33.383,0,0,1-3.568.192,21.115,21.115,0,0,1-7.869-1.338,15.316,15.316,0,0,1-5.544-3.663,14.53,14.53,0,0,1-3.249-5.512A21.815,21.815,0,0,1,463.9,236.647Zm22.3-3.632a9.876,9.876,0,0,0-.415-2.357,5.917,5.917,0,0,0-1.082-2.039,5.8,5.8,0,0,0-1.848-1.466,6.025,6.025,0,0,0-2.772-.573,6.371,6.371,0,0,0-2.74.542,5.671,5.671,0,0,0-1.911,1.433,6.41,6.41,0,0,0-1.178,2.071,13.547,13.547,0,0,0-.606,2.389Z" transform="translate(-366.285 -204.539)"/><path class="a" d="M255.444,244.064q-.595.274-1.325.594a10.863,10.863,0,0,1-1.585.534,19.982,19.982,0,0,1-2.127.42,18.609,18.609,0,0,1-2.695.176,9.32,9.32,0,0,1-3.9-.731,6.721,6.721,0,0,1-2.527-1.946,7.967,7.967,0,0,1-1.416-2.988,16.068,16.068,0,0,1-.459-3.928,12.515,12.515,0,0,1,.684-4.412,8.052,8.052,0,0,1,1.77-2.866,6.557,6.557,0,0,1,2.5-1.577,9.049,9.049,0,0,1,2.979-.507,15.671,15.671,0,0,1,4.229.523,16.713,16.713,0,0,1,3.276,1.273l.874.463,2.644-7.406-.585-.365c-.275-.171-.691-.4-1.272-.686a15.337,15.337,0,0,0-2.207-.86,25.122,25.122,0,0,0-3.017-.719,21.86,21.86,0,0,0-3.851-.314,19.609,19.609,0,0,0-6.814,1.163,15.2,15.2,0,0,0-5.483,3.453,16.2,16.2,0,0,0-3.614,5.561,19.909,19.909,0,0,0-1.31,7.414c0,5.533,1.455,9.883,4.324,12.93,2.883,3.062,7.1,4.615,12.527,4.615a26.039,26.039,0,0,0,6.646-.769,17.491,17.491,0,0,0,4.523-1.759Z" transform="translate(-230.213 -204.539)"/></g></g></svg>